<?xml version="1.0" encoding="utf-8"?>
<!-- Generator: Adobe Illustrator 24.1.1, SVG Export Plug-In . SVG Version: 6.00 Build 0)  -->
<svg version="1.1" id="Layer_1" xmlns="http://www.w3.org/2000/svg" xmlns:xlink="http://www.w3.org/1999/xlink" x="0px" y="0px"
	 viewBox="0 0 1393.5 1735.5" style="enable-background:new 0 0 1393.5 1735.5;" xml:space="preserve">
<style type="text/css">
	.st0{fill:#F3C539;}
</style>
<g>
	<path class="st0" d="M-65.3,238.3v1181h1524v-1181L-65.3,238.3L-65.3,238.3z M785,785.3h16.5v-132H785v-5.4h72.3v27.6
		c3.2-9.2,8.1-16.6,14.7-22.2c6.6-5.6,16.6-8.4,30-8.4c31,0,46.5,16.7,46.5,50.1v90.3h16.8v5.4h-84.9v-5.4h12.3v-97.5
		c0-12-0.8-19.7-2.4-23.3c-1.6-3.5-4.5-5.3-8.7-5.3c-6.4,0-12.1,4.2-17,12.6c-4.9,8.4-7.4,18.6-7.4,30.6v82.8H870v5.4h-85.2v-5.3
		L785,785.3L785,785.3z M742.5,657c9.1,8.1,13.6,22.9,13.6,44.5v60.9c0,10.4,2.9,15.6,8.7,15.6c6.8,0,10.8-10.3,12-30.9l4.5,0.3
		c-0.8,17.6-4.1,29.7-9.9,36.3c-5.8,6.6-15.3,9.9-28.5,9.9c-24,0-37.8-7.4-41.4-22.2c-2.6,7.6-6.5,13.2-11.7,16.8
		s-12.8,5.4-22.8,5.4c-29.6,0-44.4-12.1-44.4-36.3c0-14.2,5.6-23.9,17-29.3c11.3-5.3,28.6-8,52-8h8.7v-23.1c0-19-1.1-31.7-3.2-38.3
		c-2.1-6.5-6.1-9.8-12.1-9.8c-3.6,0-6.9,1-9.8,2.8c-2.9,1.9-4.4,4.5-4.4,7.8s0.6,6.7,1.8,10.1h7.5c1.6,4.2,2.4,9.3,2.4,15.1
		c0,5.9-2.5,11-7.5,15.3s-11.3,6.5-18.9,6.5c-17.2,0-25.8-8.3-25.8-24.9c0-24.6,20.9-36.9,62.7-36.9
		C717,644.9,733.5,648.9,742.5,657z M548.5,1065.8h-11.7v84.6h-4.5c-3.6-5-8.7-7.5-15.3-7.5c-2.8,0-11.2,1.8-25,5.4
		c-13.9,3.6-25.8,5.4-35.6,5.4c-32.6,0-57.9-8.8-75.8-26.4c-17.9-17.6-26.9-44-26.9-79.3c0-35.3,9.3-62.5,28.1-81.8
		c18.7-19.2,43.8-28.8,75.4-28.8c12.2,0,24.5,1.6,36.8,4.6c12.3,3.1,19.4,4.7,21.5,4.7c2,0,3.5-0.5,4.5-1.3c1-0.9,2.1-2.4,3.3-4.7
		h3.3l2.4,65.1h-5.4c-9.8-19.4-19.6-34.6-29.6-45.8c-9.9-11.1-21-16.6-33.1-16.6c-30.6,0-45.9,29.9-45.9,89.7v23.7
		c0,30,3.8,52.7,11.3,68s18.2,23,32.3,23c9.8,0,16-1.8,18.8-5.4c2.7-3.6,4-9.7,4-18.3v-58.2h-19.2v-6.7h86.4L548.5,1065.8
		L548.5,1065.8z M530.3,793.7l-76.5-207.3H440v-5.7h98v5.7h-21.3l50.4,150l52.2-150H596v-5.7h45.9v5.7h-14.1l-72.3,207.3H530.3z
		 M639.8,1153.7c-25,0-43.9-6.4-56.7-19.2c-12.8-12.8-19.2-31.1-19.2-55s6.8-42.3,20.6-55.2c13.7-12.9,32.9-19.3,57.8-19.3
		c24.8,0,43.3,6,55.5,17.8c12.2,11.9,18.3,30.1,18.3,54.5C716,1128.2,690.5,1153.7,639.8,1153.7z M856.5,1210.2
		c-13.7,10.3-35.1,15.5-64,15.5c-49.4,0-74.1-10.7-74.1-32.1c0-11.6,7.7-19.6,23.1-24l18,8.1c-1.6,5.8-2.4,11.3-2.4,16.5
		c0,17.2,12.8,25.8,38.4,25.8c15.6,0,27.6-2.9,36-8.7c8.4-5.8,12.6-13,12.6-21.6s-2.6-14.4-7.7-17.3c-5.1-2.9-15.3-4.3-30.4-4.3
		h-29.1c-16.2,0-27.8-2.7-34.8-8.1s-10.5-12-10.5-20c0-7.9,2.5-14.5,7.5-19.8s13.9-11.8,26.7-19.6c-23.2-6.6-34.8-21.8-34.8-45.6
		c0-15,5.4-27.1,16.2-36.3s27-13.8,48.6-13.8c13,0,24.1,2.5,33.3,7.5c-1.2-5.4-1.8-10.3-1.8-14.7c0-11.2,3-19.3,9-24.3
		s12.7-7.5,20.1-7.5c7.4,0,13.4,2,17.9,5.8c4.5,3.9,6.8,9.3,6.8,16c0,6.8-1.8,11.9-5.4,15.2c-3.6,3.3-8,5-13.1,5s-9.3-1.4-12.6-4
		c-3.3-2.7-5.1-6.5-5.3-11.6l8.4-5.1c1.2-6.2-1.2-9.3-7.2-9.3c-8.6,0-12.9,6.6-12.9,19.8c0,5.2,0.7,11.2,2.1,18
		c15.2,10.2,22.8,23.3,22.8,39.2s-5.5,28.3-16.5,37c-11,8.8-25.9,13.2-44.7,13.2c-7.8,0-15.9-0.8-24.3-2.4
		c-8.8,5.6-13.2,9.8-13.2,12.6c0,2.8,6.4,4.2,19.2,4.2H809c45.4,0,68.1,16.3,68.1,48.9C877,1186,870.3,1199.9,856.5,1210.2z
		 M1061.3,1150.7h-84.9v-5.4h12.3v-97.5c0-12-0.8-19.7-2.4-23.3c-1.6-3.5-4.5-5.3-8.7-5.3c-6.4,0-12.1,4.2-17,12.6
		s-7.4,18.6-7.4,30.6v82.8H966v5.4h-85.2v-5.4h16.5V931.1h-16.5v-5.4h72.3v109.8c3.2-9.2,8.1-16.6,14.7-22.2
		c6.6-5.6,16.6-8.4,30-8.4c31,0,46.5,16.7,46.5,50.1v90.3h16.8v5.4L1061.3,1150.7L1061.3,1150.7z"/>
	<path class="st0" d="M640.7,1010.3c-4.4,0-8,1.3-10.7,3.8s-4.6,6.7-5.8,12.5c-1.8,9-2.7,22.7-2.7,41.1v23.4c0,21.8,0.6,34.9,2,39.3
		c1.3,4.4,2.6,8,4,10.8c2.2,4.8,6.5,7.2,12.9,7.2c7.8,0,12.9-4.5,15.3-13.5c1.8-6.4,2.7-20.8,2.7-43.2v-25.5c0-19.4-1-33.5-3.1-42.5
		C653.2,1014.7,648.3,1010.3,640.7,1010.3z"/>
	<path class="st0" d="M795,1099.1c4.7,0,8.1-2.3,10.2-7.1c2.1-4.7,3.1-14.3,3.1-28.9v-14.7c0-15.6-1-25.8-3-30.8
		c-2-4.9-5.4-7.4-10-7.4c-4.7,0-8.3,2.6-10.7,7.7c-2.4,5.1-3.6,15.3-3.6,30.5v16.2c0,13.4,1.1,22.5,3.4,27.3
		C786.8,1096.7,790.3,1099.1,795,1099.1z"/>
	<path class="st0" d="M679.7,752.3v4.8c0,10.4,0.5,17.1,1.6,20.1s3.2,4.5,6.3,4.5s6-2.5,8.7-7.7c2.7-5.1,4.1-12.1,4.1-21.1V725h-2.1
		C685.8,725,679.7,734.1,679.7,752.3z"/>
</g>
<rect y="1400" class="st0" width="1393.5" height="520.6"/>
<rect y="0" class="st0" width="1393.5" height="300.1"/>
</svg>
