<?xml version="1.0" encoding="utf-8"?>
<!-- Generator: Adobe Illustrator 24.1.1, SVG Export Plug-In . SVG Version: 6.00 Build 0)  -->
<svg version="1.1" id="Layer_1" xmlns="http://www.w3.org/2000/svg" xmlns:xlink="http://www.w3.org/1999/xlink" x="0px" y="0px"
	 viewBox="0 0 2200 120" style="enable-background:new 0 0 2200 120;" xml:space="preserve">
<style type="text/css">
	.st0{fill:#F3C53A;}
</style>
<g>
	<path class="st0" d="M1143.4,32.9c-0.8,0-1.5,0.2-2,0.7c-0.5,0.5-0.9,1.3-1.1,2.3c-0.3,1.7-0.5,4.3-0.5,7.8v4.4
		c0,4.1,0.1,6.6,0.4,7.4c0.2,0.8,0.5,1.5,0.8,2c0.4,0.9,1.2,1.4,2.4,1.4c1.5,0,2.4-0.9,2.9-2.6c0.3-1.2,0.5-3.9,0.5-8.2v-4.8
		c0-3.7-0.2-6.3-0.6-8C1145.7,33.7,1144.8,32.9,1143.4,32.9z"/>
	<path class="st0" d="M1022.5,52.1V53c0,2,0.1,3.2,0.3,3.8c0.2,0.6,0.6,0.9,1.2,0.9c0.6,0,1.1-0.5,1.6-1.4c0.5-1,0.8-2.3,0.8-4V47
		h-0.4C1023.7,47,1022.5,48.7,1022.5,52.1z"/>
	<path class="st0" d="M1172.5,49.6c0.9,0,1.5-0.4,1.9-1.3s0.6-2.7,0.6-5.5v-2.8c0-2.9-0.2-4.9-0.6-5.8c-0.4-0.9-1-1.4-1.9-1.4
		s-1.6,0.5-2,1.4c-0.5,1-0.7,2.9-0.7,5.8v3.1c0,2.5,0.2,4.3,0.7,5.2C1171,49.2,1171.6,49.6,1172.5,49.6z"/>
	<path class="st0" d="M-147-8.6v136h2494v-136H-147z M994.3,60l-14.5-39.2h-2.6v-1.1h18.5v1.1h-4l9.5,28.3l9.9-28.3h-4.4v-1.1h8.7
		v1.1h-2.7L999,60H994.3z M1039.9,58.1c-1.1,1.2-2.9,1.9-5.4,1.9c-4.5,0-7.1-1.4-7.8-4.2c-0.5,1.4-1.2,2.5-2.2,3.2
		c-1,0.7-2.4,1-4.3,1c-5.6,0-8.4-2.3-8.4-6.9c0-2.7,1.1-4.5,3.2-5.5c2.1-1,5.4-1.5,9.8-1.5h1.6v-4.4c0-3.6-0.2-6-0.6-7.2
		c-0.4-1.2-1.2-1.8-2.3-1.8c-0.7,0-1.3,0.2-1.8,0.5c-0.5,0.4-0.8,0.9-0.8,1.5s0.1,1.3,0.3,1.9h1.4c0.3,0.8,0.5,1.7,0.5,2.9
		s-0.5,2.1-1.4,2.9c-0.9,0.8-2.1,1.2-3.6,1.2c-3.3,0-4.9-1.6-4.9-4.7c0-4.6,3.9-7,11.8-7c4.5,0,7.6,0.8,9.3,2.3
		c1.7,1.5,2.6,4.3,2.6,8.4v11.5c0,2,0.5,2.9,1.6,2.9c1.3,0,2-1.9,2.3-5.8l0.9,0.1C1041.6,54.6,1041,56.8,1039.9,58.1z M1076.5,59.4
		h-16v-1h2.3V39.9c0-2.3-0.1-3.7-0.5-4.4c-0.3-0.7-0.9-1-1.6-1c-1.2,0-2.3,0.8-3.2,2.4c-0.9,1.6-1.4,3.5-1.4,5.8v15.6h2.4v1h-16.1
		v-1h3.1V33.4h-3.1v-1h13.7v5.2c0.6-1.7,1.5-3.1,2.8-4.2c1.2-1.1,3.1-1.6,5.7-1.6c5.9,0,8.8,3.2,8.8,9.5v17.1h3.2L1076.5,59.4
		L1076.5,59.4z M1126,43.4h-2.2v16h-0.9c-0.7-0.9-1.6-1.4-2.9-1.4c-0.5,0-2.1,0.3-4.7,1c-2.6,0.7-4.9,1-6.7,1
		c-6.2,0-10.9-1.7-14.3-5c-3.4-3.3-5.1-8.3-5.1-15c0-6.7,1.8-11.8,5.3-15.5s8.3-5.4,14.2-5.4c2.3,0,4.6,0.3,6.9,0.9
		c2.3,0.6,3.7,0.9,4.1,0.9c0.4,0,0.7-0.1,0.9-0.3c0.2-0.2,0.4-0.5,0.6-0.9h0.6l0.5,12.3h-1c-1.8-3.7-3.7-6.5-5.6-8.6
		c-1.9-2.1-4-3.1-6.3-3.1c-5.8,0-8.7,5.6-8.7,16.9v4.5c0,5.7,0.7,9.9,2.1,12.8c1.4,2.9,3.4,4.3,6.1,4.3c1.8,0,3-0.3,3.5-1
		s0.8-1.8,0.8-3.5v-11h-3.6v-1.2h16.3L1126,43.4L1126,43.4z M1143.2,60c-4.7,0-8.3-1.2-10.7-3.6c-2.4-2.4-3.6-5.9-3.6-10.4
		c0-4.5,1.3-8,3.9-10.4c2.6-2.4,6.2-3.7,10.9-3.7c4.7,0,8.2,1.1,10.5,3.4c2.3,2.2,3.5,5.7,3.5,10.3C1157.6,55.1,1152.8,60,1143.2,60
		z M1184.1,70.6c-2.6,1.9-6.6,2.9-12.1,2.9c-9.3,0-14-2-14-6.1c0-2.2,1.5-3.7,4.4-4.5l3.4,1.5c-0.3,1.1-0.5,2.1-0.5,3.1
		c0,3.3,2.4,4.9,7.3,4.9c2.9,0,5.2-0.5,6.8-1.6c1.6-1.1,2.4-2.5,2.4-4.1s-0.5-2.7-1.5-3.3c-1-0.5-2.9-0.8-5.8-0.8h-5.5
		c-3.1,0-5.2-0.5-6.6-1.5s-2-2.3-2-3.8c0-1.5,0.5-2.7,1.4-3.7c0.9-1,2.6-2.2,5-3.7c-4.4-1.2-6.6-4.1-6.6-8.6c0-2.8,1-5.1,3.1-6.9
		c2-1.7,5.1-2.6,9.2-2.6c2.5,0,4.6,0.5,6.3,1.4c-0.2-1-0.3-1.9-0.3-2.8c0-2.1,0.6-3.7,1.7-4.6c1.1-0.9,2.4-1.4,3.8-1.4
		c1.4,0,2.5,0.4,3.4,1.1s1.3,1.7,1.3,3c0,1.3-0.3,2.2-1,2.9c-0.7,0.6-1.5,0.9-2.5,0.9c-1,0-1.8-0.3-2.4-0.8c-0.6-0.5-1-1.2-1-2.2
		l1.6-1c0.2-1.2-0.2-1.8-1.4-1.8c-1.6,0-2.4,1.2-2.4,3.7c0,1,0.1,2.1,0.4,3.4c2.9,1.9,4.3,4.4,4.3,7.4c0,3-1,5.3-3.1,7
		c-2.1,1.7-4.9,2.5-8.4,2.5c-1.5,0-3-0.1-4.6-0.5c-1.7,1.1-2.5,1.8-2.5,2.4c0,0.5,1.2,0.8,3.6,0.8h5.8c8.6,0,12.9,3.1,12.9,9.2
		C1188,66.1,1186.7,68.7,1184.1,70.6z M1222.8,59.4h-16v-1h2.3V39.9c0-2.3-0.1-3.7-0.5-4.4c-0.3-0.7-0.9-1-1.6-1
		c-1.2,0-2.3,0.8-3.2,2.4c-0.9,1.6-1.4,3.5-1.4,5.8v15.6h2.4v1h-16.1v-1h3.1V17.9h-3.1v-1h13.7v20.7c0.6-1.7,1.5-3.1,2.8-4.2
		c1.2-1.1,3.1-1.6,5.7-1.6c5.9,0,8.8,3.2,8.8,9.5v17.1h3.2L1222.8,59.4L1222.8,59.4z"/>
</g>
<rect x="-12.5" y="-57.2" class="st0" width="2254.4" height="71.4"/>
</svg>
