<?xml version="1.0" encoding="utf-8"?>
<!-- Generator: Adobe Illustrator 24.1.1, SVG Export Plug-In . SVG Version: 6.00 Build 0)  -->
<svg version="1.1" id="Layer_1" xmlns="http://www.w3.org/2000/svg" xmlns:xlink="http://www.w3.org/1999/xlink" x="0px" y="0px"
	 viewBox="0 0 1984.3 1618.3" style="enable-background:new 0 0 1984.3 1618.3;" xml:space="preserve">
<style type="text/css">
	.st0{fill:#F3C53E;}
</style>
<g>
	<path class="st0" d="M1503.9,740.4c6.3,0,10.8-3.1,13.6-9.4c2.8-6.3,4.2-19.1,4.2-38.6v-19.6c0-20.8-1.3-34.5-4-41
		c-2.7-6.5-7.1-9.8-13.4-9.8c-6.3,0-11,3.4-14.2,10.2c-3.2,6.8-4.8,20.3-4.8,40.6v21.6c0,17.9,1.5,30,4.6,36.4
		C1493,737.2,1497.7,740.4,1503.9,740.4z"/>
	<path class="st0" d="M1298.1,622c-5.9,0-10.6,1.7-14.2,5c-3.6,3.3-6.2,8.9-7.8,16.6c-2.4,12-3.6,30.3-3.6,54.8v31.2
		c0,29.1,0.9,46.5,2.6,52.4c1.7,5.9,3.5,10.7,5.4,14.4c2.9,6.4,8.7,9.6,17.2,9.6c10.4,0,17.2-6,20.4-18c2.4-8.5,3.6-27.7,3.6-57.6
		v-34c0-25.9-1.4-44.7-4.2-56.6C1314.7,627.9,1308.3,622,1298.1,622z"/>
	<path class="st0" d="M445.3,758v6.4c0,13.9,0.7,22.8,2.2,26.8c1.5,4,4.3,6,8.4,6c4.1,0,8-3.4,11.6-10.2c3.6-6.8,5.4-16.2,5.4-28.2
		v-37.2h-2.8C453.6,721.6,445.3,733.7,445.3,758z"/>
	<path class="st0" d="M0,0v1618.3h1984.3V0H0z M246.1,813.2l-102-276.4h-18.4v-7.6h130.8v7.6h-28.4l67.2,200l69.6-200h-31.2v-7.6
		h61.2v7.6h-18.8l-96.4,276.4H246.1z M567.7,800c-7.7,8.8-20.4,13.2-38,13.2c-32,0-50.4-9.9-55.2-29.6c-3.5,10.1-8.7,17.6-15.6,22.4
		c-6.9,4.8-17.1,7.2-30.4,7.2c-39.5,0-59.2-16.1-59.2-48.4c0-18.9,7.5-31.9,22.6-39c15.1-7.1,38.2-10.6,69.4-10.6h11.6v-30.8
		c0-25.3-1.4-42.3-4.2-51c-2.8-8.7-8.2-13-16.2-13c-4.8,0-9.1,1.3-13,3.8c-3.9,2.5-5.8,6-5.8,10.4c0,4.4,0.8,8.9,2.4,13.4h10
		c2.1,5.6,3.2,12.3,3.2,20.2c0,7.9-3.3,14.7-10,20.4c-6.7,5.7-15.1,8.6-25.2,8.6c-22.9,0-34.4-11.1-34.4-33.2
		c0-32.8,27.9-49.2,83.6-49.2c31.7,0,53.7,5.4,65.8,16.2c12.1,10.8,18.2,30.6,18.2,59.4v81.2c0,13.9,3.9,20.8,11.6,20.8
		c9.1,0,14.4-13.7,16-41.2l6,0.4C579.9,775,575.5,791.2,567.7,800z M826.1,809.2H712.9V802h16.4V672c0-16-1.1-26.3-3.2-31
		c-2.1-4.7-6-7-11.6-7c-8.5,0-16.1,5.6-22.6,16.8c-6.5,11.2-9.8,24.8-9.8,40.8V802h17.2v7.2H585.7V802h22V626h-22v-7.2h96.4v36.8
		c4.3-12.3,10.8-22.1,19.6-29.6c8.8-7.5,22.1-11.2,40-11.2c41.3,0,62,22.3,62,66.8V802h22.4V809.2z M1175.3,696h-15.6v112.8h-6
		c-4.8-6.7-11.6-10-20.4-10c-3.7,0-14.9,2.4-33.4,7.2c-18.5,4.8-34.3,7.2-47.4,7.2c-43.5,0-77.1-11.7-101-35.2
		c-23.9-23.5-35.8-58.7-35.8-105.8c0-47.1,12.5-83.4,37.4-109c24.9-25.6,58.5-38.4,100.6-38.4c16.3,0,32.6,2.1,49,6.2
		c16.4,4.1,25.9,6.2,28.6,6.2c2.7,0,4.7-0.6,6-1.8c1.3-1.2,2.8-3.3,4.4-6.2h4.4l3.2,86.8h-7.2c-13.1-25.9-26.2-46.2-39.4-61
		c-13.2-14.8-27.9-22.2-44.2-22.2c-40.8,0-61.2,39.9-61.2,119.6V684c0,40,5,70.2,15,90.6c10,20.4,24.3,30.6,43,30.6
		c13.1,0,21.4-2.4,25-7.2c3.6-4.8,5.4-12.9,5.4-24.4V696h-25.6v-8.8h115.2V696z M1296.9,813.2c-33.3,0-58.5-8.5-75.6-25.6
		c-17.1-17.1-25.6-41.5-25.6-73.4c0-31.9,9.1-56.4,27.4-73.6c18.3-17.2,43.9-25.8,77-25.8c33.1,0,57.7,7.9,74,23.8
		c16.3,15.9,24.4,40.1,24.4,72.6C1398.5,779.2,1364.7,813.2,1296.9,813.2z M1585.9,888.6c-18.3,13.7-46.7,20.6-85.4,20.6
		c-65.9,0-98.8-14.3-98.8-42.8c0-15.5,10.3-26.1,30.8-32l24,10.8c-2.1,7.7-3.2,15.1-3.2,22c0,22.9,17.1,34.4,51.2,34.4
		c20.8,0,36.8-3.9,48-11.6c11.2-7.7,16.8-17.3,16.8-28.8c0-11.5-3.4-19.1-10.2-23c-6.8-3.9-20.3-5.8-40.6-5.8h-38.8
		c-21.6,0-37.1-3.6-46.4-10.8c-9.3-7.2-14-16.1-14-26.6c0-10.5,3.3-19.3,10-26.4c6.7-7.1,18.5-15.8,35.6-26.2
		c-30.9-8.8-46.4-29.1-46.4-60.8c0-20,7.2-36.1,21.6-48.4c14.4-12.3,36-18.4,64.8-18.4c17.3,0,32.1,3.3,44.4,10
		c-1.6-7.2-2.4-13.7-2.4-19.6c0-14.9,4-25.7,12-32.4c8-6.7,16.9-10,26.8-10c9.9,0,17.8,2.6,23.8,7.8s9,12.3,9,21.4
		c0,9.1-2.4,15.8-7.2,20.2c-4.8,4.4-10.6,6.6-17.4,6.6s-12.4-1.8-16.8-5.4c-4.4-3.6-6.7-8.7-7-15.4l11.2-6.8
		c1.6-8.3-1.6-12.4-9.6-12.4c-11.5,0-17.2,8.8-17.2,26.4c0,6.9,0.9,14.9,2.8,24c20.3,13.6,30.4,31,30.4,52.2s-7.3,37.7-22,49.4
		c-14.7,11.7-34.5,17.6-59.6,17.6c-10.4,0-21.2-1.1-32.4-3.2c-11.7,7.5-17.6,13.1-17.6,16.8c0,3.7,8.5,5.6,25.6,5.6h40.8
		c60.5,0,90.8,21.7,90.8,65.2C1613.3,856.2,1604.2,874.8,1585.9,888.6z M1858.9,809.2h-113.2V802h16.4V672c0-16-1.1-26.3-3.2-31
		c-2.1-4.7-6-7-11.6-7c-8.5,0-16.1,5.6-22.6,16.8c-6.5,11.2-9.8,24.8-9.8,40.8V802h17.2v7.2h-113.6V802h22V516.4h-22v-7.2h96.4
		v146.4c4.3-12.3,10.8-22.1,19.6-29.6c8.8-7.5,22.1-11.2,40-11.2c41.3,0,62,22.3,62,66.8V802h22.4V809.2z"/>
</g>
</svg>
